<svg width="200" height="200" viewBox="0 0 200 200" fill="none" xmlns="http://www.w3.org/2000/svg">
<g clip-path="url(#clip0)">
<path d="M61.9024 174.311C58.9333 182.625 51.9175 181.639 44.7453 178.458C34.5998 173.957 21.1058 153.409 19.7677 143.713C18.5396 134.815 21.7209 127.846 28.6487 126.94" fill="white"/>
<path d="M61.9024 174.311C58.9333 182.625 51.9175 181.639 44.7453 178.458C34.5998 173.957 21.1058 153.409 19.7677 143.713C18.5396 134.815 21.7209 127.846 28.6487 126.94" stroke="black" stroke-width="4.99999" stroke-linecap="round" stroke-linejoin="round"/>
<path d="M28.2791 54.0588C17.4733 56.4031 23.4681 73.518 32.5675 90.2308C36.1007 96.7205 26.1055 123.216 32.2647 140.091C36.2714 151.069 51.3231 171.117 61.9273 173.88C80.0842 178.611 96.0368 175.515 111.984 167.031C117.637 164.024 123.409 159.745 127.742 155.773C141.971 142.728 189.104 126.55 192.111 122.418C200.467 110.938 184.217 103.661 175.279 106.643C170.95 108.088 137.944 114.953 142.342 111.27C153.146 102.222 167.239 92.6329 181.065 84.3379C201.754 71.9251 176.072 49.8087 156.819 61.6301C147.799 67.1679 139.618 70.7315 119.78 83.5624C127.167 72.5869 137.185 56.089 145.567 46.4815C159.39 30.6385 131.035 15.3818 114.541 35.1075C103.309 48.5412 85.7191 74.9592 61.594 92.6171C61.8019 77.5115 60.8737 46.9862 28.2806 54.0564L28.2791 54.0588Z" fill="white" stroke="black" stroke-width="4.99999" stroke-linecap="round" stroke-linejoin="round"/>
<path d="M118.441 81.0926C108.688 93.813 106.592 102.573 105.051 106.449C110.949 98.307 112.228 96.0851 119.177 87.8745C120.355 86.4824 121.959 85.0539 124.179 83.6348L118.441 81.0926Z" fill="black"/>
<path d="M140.699 109.387C133.498 115.426 126.264 124.437 123.004 131.612C126.887 128.257 133.508 122.433 139.309 117.218C140.882 115.803 142.633 114.925 145.637 114.719C143.626 113.297 142.237 111.277 140.699 109.387L140.699 109.387Z" fill="black"/>
<path d="M61.5496 159.019C73.9348 155.376 76.5525 153.157 82.2217 150.493" stroke="black" stroke-width="4.99999" stroke-linecap="round" stroke-linejoin="round"/>
<path d="M53.6064 150.59C65.8918 143.311 71.1129 138.654 78.8547 133.061" stroke="black" stroke-width="4.99999" stroke-linecap="round" stroke-linejoin="round"/>
<path d="M44.43 140.249C52.1371 134.154 55.206 130.563 59.7121 126.196" stroke="black" stroke-width="4.99999" stroke-linecap="round" stroke-linejoin="round"/>
</g>
<defs>
<clipPath id="clip0">
<rect width="200" height="200" fill="white"/>
</clipPath>
</defs>
</svg>
