<svg width="200" height="200" viewBox="0 0 200 200" fill="none" xmlns="http://www.w3.org/2000/svg">
<path d="M47.7268 120.561C39.5851 123.901 35.6662 118.021 33.2487 110.556C29.8319 99.996 36.1393 76.2367 42.45 68.7688C48.287 61.9218 55.5128 59.628 60.8889 64.1965" fill="white"/>
<path d="M47.7268 120.561C39.5851 123.901 35.6662 118.021 33.2487 110.556C29.8319 99.996 36.1393 76.2367 42.45 68.7688C48.287 61.9218 55.5128 59.628 60.8889 64.1965" stroke="black" stroke-width="4.99983" stroke-linecap="round" stroke-linejoin="round"/>
<path d="M115.593 46.5251C96.677 42.4201 63.8979 55.5491 53.4392 75.6534C48.154 86.0539 43.0985 110.558 48.1421 120.305C56.686 136.984 69.6977 146.803 86.6526 153.028C92.6585 155.227 99.6596 156.662 105.551 157.246C129.593 159.828 148.538 155.147 148.382 138.43C168.718 136.596 168.878 105.679 153.972 103.138C173.754 90.5225 161.201 65.5373 139.039 71.4234C136.9 67.5815 135.231 50.7932 115.593 46.5251V46.5251Z" fill="white" stroke="black" stroke-width="4.99983" stroke-linecap="round" stroke-linejoin="round"/>
<path d="M152.861 105.554C137.008 107.909 131.037 104.988 126.849 104.474C136.868 103.253 139.439 103.21 149.984 101.121C151.778 100.763 153.624 100.212 155.812 98.6682L155.713 106.28C156.071 106.39 154.003 105.56 152.862 105.554L152.861 105.554Z" fill="black"/>
<path d="M149.95 140.702C140.551 141.078 128.952 140.475 121.724 137.357C126.895 137.226 140.242 136 148.033 135.959C148.033 135.943 148.016 135.972 149.95 140.703L149.95 140.702Z" fill="black"/>
<path d="M58.8823 110.097C69.8852 116.895 73.3004 117.368 79.0185 119.806" stroke="black" stroke-width="4.99983" stroke-linecap="round" stroke-linejoin="round"/>
<path d="M59.862 98.5561C73.5099 102.858 80.4906 103.644 89.7659 105.67" stroke="black" stroke-width="4.99983" stroke-linecap="round" stroke-linejoin="round"/>
<path d="M61.4433 84.8219C71.1482 86.5019 75.9029 86.3973 82.0682 86.8259" stroke="black" stroke-width="4.99983" stroke-linecap="round" stroke-linejoin="round"/>
<path d="M140.663 68.8413C119.507 70.2981 112.479 62.8198 102.808 57.0457C112.5 65.0164 114.782 74.1041 139.262 73.9203L140.663 68.8413V68.8413Z" fill="black"/>
</svg>
