<svg width="200" height="200" viewBox="0 0 200 200" fill="none" xmlns="http://www.w3.org/2000/svg">
<g clip-path="url(#clip0)">
<path d="M21.9018 98.2894C13.2136 99.6903 10.7345 93.0736 10.078 85.2543C9.15241 74.1933 20.6982 52.4905 28.5421 46.6534C35.7834 41.3133 43.3417 40.7228 47.538 46.3944" fill="white"/>
<path d="M21.9018 98.2894C13.2136 99.6903 10.7345 93.0736 10.078 85.2543C9.15241 74.1933 20.6982 52.4905 28.5421 46.6534C35.7834 41.3133 43.3417 40.7228 47.538 46.3944" stroke="black" stroke-width="4.99993" stroke-linecap="round" stroke-linejoin="round"/>
<path d="M104.829 41.6269C87.3416 33.3274 52.4349 38.6577 37.6778 55.8571C30.1656 64.7832 19.6696 87.4957 22.3645 98.1343C26.8912 116.321 37.3291 128.842 52.4243 138.76C57.773 142.267 64.2643 145.257 69.8682 147.165C90.4802 153.889 108.555 143.279 115.858 138.582C128.987 143.716 144.169 151.473 158.088 159.618C178.907 171.801 185.973 138.654 166.353 127.441C157.168 122.192 150.108 116.725 129.328 105.486C142.507 106.698 161.788 107.56 174.237 110.297C194.775 114.815 194.536 82.6146 169.31 77.6201C152.132 74.22 138.396 74.3684 121.998 71.2056C120.789 66.9778 122.982 50.2496 104.829 41.6269Z" fill="white" stroke="black" stroke-width="4.99993" stroke-linecap="round" stroke-linejoin="round"/>
<path d="M130.818 103.113C114.978 100.667 106.293 103.037 102.101 103.526C112.113 104.805 114.684 104.862 125.218 107.012C127.009 107.38 129.029 108.099 131.344 109.366L130.818 103.113V103.113Z" fill="black"/>
<path d="M116.69 136.224C107.927 132.804 96.5536 130.788 88.7028 131.379C98.2701 134.888 105.827 137.65 115.019 140.781C115.028 140.757 115.762 138.476 116.686 136.222L116.69 136.224Z" fill="black"/>
<path d="M35.145 90.6362C44.3137 99.7589 47.5318 100.997 52.5457 104.671" stroke="black" stroke-width="4.99993" stroke-linecap="round" stroke-linejoin="round"/>
<path d="M38.7237 79.6208C51.036 86.9137 57.6551 89.2671 66.2266 93.3497" stroke="black" stroke-width="4.99993" stroke-linecap="round" stroke-linejoin="round"/>
<path d="M43.3871 66.6058C52.4558 70.449 57.1098 71.4285 63.0162 73.248" stroke="black" stroke-width="4.99993" stroke-linecap="round" stroke-linejoin="round"/>
<path d="M124.167 69.0604C103.234 65.6676 98.0902 56.7867 89.9855 48.9643C97.6115 58.9306 97.7667 68.2994 121.647 73.6877L124.167 69.0604V69.0604Z" fill="black"/>
</g>
<defs>
<clipPath id="clip0">
<rect width="200" height="200" fill="white"/>
</clipPath>
</defs>
</svg>
